<svg width="33" height="32" viewBox="0 0 33 32" fill="none" xmlns="http://www.w3.org/2000/svg">
<path d="M16.5932 24.6854C17.1423 24.6854 17.8387 22.5426 17.8387 18.5917V12.2837C20.0218 11.7212 21.6289 9.73905 21.6289 7.38191C21.6289 4.60956 19.3923 2.34619 16.5932 2.34619C13.8075 2.34619 11.5709 4.60956 11.5709 7.38191C11.5709 9.73905 13.1646 11.7212 15.3477 12.2702V18.5917C15.3477 22.5292 16.0575 24.6854 16.5932 24.6854ZM15.1602 7.66316C14.2494 7.66316 13.4459 6.85956 13.4459 5.93545C13.4459 4.99796 14.2494 4.20779 15.1602 4.20779C16.0977 4.20779 16.8745 4.99796 16.8745 5.93545C16.8745 6.85956 16.0977 7.66316 15.1602 7.66316ZM16.5932 29.6542C24.6959 29.6542 29.3834 26.8417 29.3834 23.8551C29.3834 20.2524 23.6513 18.0694 19.9548 18.056V20.1453C22.5262 20.1587 26.5307 21.5515 26.5307 23.5337C26.5307 25.6364 22.7539 27.4042 16.5932 27.4042C10.4459 27.4042 6.66909 25.6497 6.66909 23.5337C6.66909 21.5515 10.6735 20.1587 13.245 20.1453V18.056C9.54858 18.0694 3.81641 20.2524 3.81641 23.8551C3.81641 26.8417 8.50395 29.6542 16.5932 29.6542Z" fill="black"/>
</svg>
