<svg width="22" height="22" viewBox="0 0 22 22" fill="none" xmlns="http://www.w3.org/2000/svg">
<path d="M0 11C0 4.92487 4.92487 0 11 0C17.0751 0 22 4.92487 22 11C22 17.0751 17.0751 22 11 22C4.92487 22 0 17.0751 0 11Z" fill="#5B21C6"/>
<path fill-rule="evenodd" clip-rule="evenodd" d="M13.9938 9.23283V7.26165L10.3547 9.23283V5.3208C10.3547 5.18681 10.2461 5.07819 10.1121 5.07819H5.22967C5.09568 5.07819 4.98706 5.18681 4.98706 5.3208V17.5421C4.98706 17.6761 5.09568 17.7847 5.22967 17.7847H17.1174C17.2514 17.7847 17.36 17.6761 17.36 17.5421V7.26165L13.9938 9.23283ZM9.1417 11.2694L12.7808 9.29827V11.3489L16.147 9.3777V16.5717H12.0833V12.3261C12.0833 11.9241 11.7574 11.5982 11.3555 11.5982H8.14095C7.73898 11.5982 7.41313 11.9241 7.41313 12.3261V16.5717H6.20009V8.41403H9.1417V11.2694ZM8.38355 16.5717H11.1129V12.5687H8.38355V16.5717ZM9.1417 6.29123V7.44361H6.20009V6.29123H9.1417Z" fill="#F6F4F2"/>
</svg>
