<svg width="34" height="24" viewBox="0 0 34 24" fill="none" xmlns="http://www.w3.org/2000/svg">
<g clip-path="url(#clip0_962_7454)">
<rect width="33.6" height="24" rx="3" fill="white"/>
<path fill-rule="evenodd" clip-rule="evenodd" d="M0 0H6.4V6.4H0V0ZM9.6 0H16V6.4H9.6V0ZM0 9.6H6.4V16H0V9.6ZM9.6 9.6H16V16H9.6V9.6ZM16 0H33.6V3.2H16V0ZM16 6.4H33.6V9.6H16V6.4Z" fill="#1A47B8"/>
<path fill-rule="evenodd" clip-rule="evenodd" d="M0 12.8H33.6V16H0V12.8ZM6.4 12.8H9.6V16H6.4V12.8ZM0 19.2H33.6V22.4H0V19.2Z" fill="#1A47B8"/>
</g>
<defs>
<clipPath id="clip0_962_7454">
<rect width="33.6" height="24" rx="3" fill="white"/>
</clipPath>
</defs>
</svg>
