<svg width="48" height="48" viewBox="0 0 48 48" fill="none" xmlns="http://www.w3.org/2000/svg">
<rect width="48" height="48" rx="24" fill="url(#paint0_linear_639_108)"/>
<path d="M24.2767 10.3544C29.9977 10.3544 35.0694 14.0164 36.875 19.4483L38.8022 18.7973C36.7127 12.5516 30.87 8.31995 24.2767 8.31995C15.8373 8.31995 8.95996 15.2167 8.95996 23.6799C8.95996 32.1432 15.8373 39.0399 24.2767 39.0399C24.6013 39.0399 25.0476 39.0399 25.4939 39.0196V36.9852V32.6722C26.8532 32.3263 28.4356 31.6956 30.0585 30.536C33.4262 28.0947 35.6172 25.694 35.6172 24.453C35.6172 23.5782 33.0204 16.6611 27.1778 15.2981C21.822 14.0571 18.1094 16.3153 16.5676 18.6345C14.8635 21.2183 15.2287 23.6596 15.4721 24.5954L17.44 24.0868C17.2979 23.5579 16.9734 21.7065 18.2717 19.7535C20.3004 16.7018 24.5404 16.7629 26.7314 17.2715C31.0323 18.2683 33.2436 23.2934 33.5682 24.4123C33.3044 24.9616 32.0872 26.5485 28.8819 28.8881C27.7458 29.7222 26.5894 30.2512 25.4939 30.5767C25.3519 28.2167 24.1753 25.6737 21.0916 25.6737C19.3267 25.6737 17.9268 26.5892 17.4197 28.054C16.9531 29.4577 17.44 31.0243 18.6369 31.9398C19.6512 32.7332 21.4568 33.0994 23.4449 32.957V36.9648C16.5068 36.5376 10.9684 30.7394 10.9684 23.6799C10.9887 16.3356 16.9531 10.3544 24.2767 10.3544ZM19.8744 30.3326C19.3469 29.9257 19.1441 29.295 19.3469 28.705C19.5701 28.0743 20.199 27.7081 21.0916 27.7081C23.2218 27.7081 23.4652 29.9664 23.4652 30.9225C21.7205 31.0853 20.3816 30.7191 19.8744 30.3326ZM27.7864 23.5986C26.8734 23.5986 26.1228 22.8458 26.1228 21.9303C26.1228 21.0148 26.8734 20.2621 27.7864 20.2621C28.6993 20.2621 29.4499 21.0148 29.4499 21.9303C29.4499 22.8458 28.6993 23.5986 27.7864 23.5986Z" fill="#FCFCFC"/>
<defs>
<linearGradient id="paint0_linear_639_108" x1="24" y1="0" x2="24" y2="48" gradientUnits="userSpaceOnUse">
<stop stop-color="#23AAE4"/>
<stop offset="1" stop-color="#223B71"/>
</linearGradient>
</defs>
</svg>
