<svg width="33" height="32" viewBox="0 0 33 32" fill="none" xmlns="http://www.w3.org/2000/svg">
<path d="M27.2237 5.14307C28.5337 5.14307 29.5162 5.46847 30.1712 6.11928C30.7917 6.73584 31.1182 7.63695 31.1509 8.82263L31.1536 9.02288V22.6523C31.1536 23.9372 30.8261 24.903 30.1712 25.5496C29.5506 26.1622 28.6362 26.4847 27.4279 26.5169L27.2237 26.5196H5.67206C4.3621 26.5196 3.37963 26.1963 2.72465 25.5496C2.10415 24.937 1.77757 24.038 1.74491 22.8525L1.74219 22.6523V9.02288C1.74219 7.72962 2.06968 6.75966 2.72465 6.11303C3.34516 5.50042 4.25959 5.178 5.46794 5.14575L5.67206 5.14307H27.2237ZM3.75718 22.5397C3.75718 23.1905 3.92405 23.6807 4.2578 24.0102C4.56588 24.3145 4.99838 24.4783 5.55528 24.5017L5.6971 24.5046L15.6845 24.5042V17.8714H15.5969C15.3883 18.5138 15.0608 19.1271 14.6144 19.7111C14.168 20.2952 13.6591 20.8209 13.0875 21.2881C12.516 21.7554 11.9361 22.1371 11.3479 22.4333C10.7596 22.7295 10.2277 22.9151 9.75213 22.9902C9.39335 23.0403 9.11175 22.961 8.90733 22.7524C8.70291 22.5438 8.6007 22.3019 8.6007 22.0265C8.6007 21.7261 8.68831 21.4821 8.86353 21.2944C9.01684 21.1301 9.22445 21.0249 9.48636 20.9788L9.60193 20.9627C10.0358 20.9126 10.4989 20.752 10.9912 20.4809C11.4834 20.2097 11.9611 19.8759 12.4242 19.4796C12.8873 19.0833 13.3003 18.6661 13.6632 18.2281C13.9808 17.8448 14.2297 17.4822 14.41 17.1405L14.483 16.9953L3.75704 16.9951L3.75718 22.5397ZM29.1382 16.9951L18.4129 16.9953C18.5964 17.3791 18.8697 17.79 19.2326 18.2281C19.5956 18.6661 20.0086 19.0833 20.4717 19.4796C20.9348 19.8759 21.4103 20.2097 21.8985 20.4809C22.3323 20.7219 22.7448 20.8756 23.1358 20.9419L23.2814 20.9627C23.6068 20.9961 23.8571 21.1066 24.0324 21.2944C24.2075 21.4821 24.2951 21.7261 24.2951 22.0265C24.2951 22.3019 24.1929 22.5438 23.9886 22.7524C23.7841 22.961 23.5025 23.0403 23.1438 22.9902C22.6598 22.9151 22.1258 22.7295 21.5418 22.4333C20.9577 22.1371 20.3799 21.7554 19.8084 21.2881C19.2368 20.8209 18.7278 20.2952 18.2814 19.7111C17.8847 19.192 17.5818 18.6498 17.3729 18.0844L17.299 17.8714H17.1988V24.5042L27.1989 24.5046C27.8163 24.5046 28.2939 24.3398 28.6317 24.0102C28.9437 23.706 29.1117 23.2649 29.1357 22.687L29.1387 22.5397L29.1382 16.9951ZM27.3389 7.16102L27.1989 7.15806L17.1988 7.15792V11.4509C17.4742 10.9169 17.81 10.4559 18.2064 10.0679C18.6027 9.67996 19.0386 9.38167 19.5142 9.17308C19.9898 8.96449 20.4863 8.86019 21.0036 8.86019C21.9047 8.86019 22.6536 9.15848 23.2501 9.75505C23.8467 10.3516 24.145 11.1088 24.145 12.0266C24.145 12.5523 24.0323 13.0424 23.8071 13.4972C23.5818 13.9519 23.2668 14.3587 22.8621 14.7174C22.5081 15.0314 22.1045 15.3006 21.6514 15.5251L21.4542 15.6186H29.1382L29.1387 9.13553C29.1387 8.48472 28.9697 7.99244 28.6317 7.6587C28.3199 7.35061 27.8889 7.18472 27.3389 7.16102ZM15.6845 7.15792L5.6971 7.15806C5.07132 7.15806 4.59156 7.32494 4.2578 7.6587C3.94973 7.96677 3.78384 8.40992 3.76014 8.98816L3.75718 9.13553L3.75704 15.6186H11.4292C10.9036 15.3766 10.4384 15.0762 10.0337 14.7174C9.62905 14.3587 9.31199 13.9519 9.08255 13.4972C8.85309 13.0424 8.73837 12.5523 8.73837 12.0266C8.73837 11.1088 9.03874 10.3516 9.63948 9.75505C10.2402 9.15848 10.987 8.86019 11.8798 8.86019C12.4054 8.86019 12.906 8.96449 13.3816 9.17308C13.8572 9.38167 14.2932 9.67996 14.6895 10.0679C15.0363 10.4074 15.3336 10.8028 15.5813 11.2541L15.6845 11.4509V7.15792ZM11.9799 10.6374C11.5293 10.6374 11.1706 10.773 10.9036 11.0442C10.6366 11.3153 10.5031 11.6887 10.5031 12.1643C10.5031 12.5564 10.624 12.9465 10.866 13.3345C11.108 13.7225 11.4417 14.0729 11.8672 14.3858C12.2928 14.6987 12.7809 14.9511 13.3316 15.143C13.8134 15.3109 14.3208 15.4053 14.8538 15.4263L15.0838 15.4308H15.4592V15.0804C15.4592 14.4797 15.3674 13.9123 15.1839 13.3783C15.0003 12.8443 14.7458 12.3708 14.4204 11.9578C14.095 11.5448 13.7237 11.2214 13.3065 10.9878C12.8894 10.7542 12.4471 10.6374 11.9799 10.6374ZM20.9035 10.6374C20.4446 10.6374 20.0065 10.7542 19.5893 10.9878C19.1722 11.2214 18.8009 11.5448 18.4755 11.9578C18.1501 12.3708 17.8935 12.8443 17.7057 13.3783C17.5415 13.8455 17.4491 14.3383 17.4285 14.8567L17.4241 15.0804V15.4308H17.7996C18.4254 15.4308 19.0136 15.3349 19.5643 15.143C20.115 14.9511 20.601 14.6987 21.0224 14.3858C21.4437 14.0729 21.7754 13.7225 22.0173 13.3345C22.2593 12.9465 22.3803 12.5564 22.3803 12.1643C22.3803 11.6887 22.2489 11.3153 21.9861 11.0442C21.7232 10.773 21.3624 10.6374 20.9035 10.6374Z" fill="black"/>
</svg>
