<svg width="133" height="133" viewBox="0 0 133 133" fill="none" xmlns="http://www.w3.org/2000/svg">
<path d="M0 66.5C0 29.7731 29.7731 0 66.5 0C103.227 0 133 29.7731 133 66.5C133 103.227 103.227 133 66.5 133C29.7731 133 0 103.227 0 66.5Z" fill="#183F92"/>
<path fill-rule="evenodd" clip-rule="evenodd" d="M74.0852 40.2334C75.7053 40.2334 77.0186 41.5467 77.0186 43.1667V57.6101H83.3942C85.0142 57.6101 86.3275 58.9234 86.3275 60.5434C86.3275 62.1634 85.0142 63.4767 83.3942 63.4767H64.7763C63.1563 63.4767 61.843 62.1634 61.843 60.5434C61.843 58.9234 63.1563 57.6101 64.7763 57.6101H71.1519V43.1667C71.1519 41.5467 72.4652 40.2334 74.0852 40.2334ZM61.0151 67.5298C61.0151 65.7072 62.4926 64.2298 64.3151 64.2298H84.0045C85.2079 64.2298 86.316 64.8849 86.896 65.9394L90.5067 72.5044H103.073C105.526 72.5044 107.122 75.086 106.025 77.2802L96.0483 97.2333C95.4893 98.3513 94.3467 99.0575 93.0967 99.0575H42.6656L42.4844 99.0349C41.0637 98.8573 38.9304 98.3103 36.7604 97.2493C34.5871 96.1866 32.1789 94.5104 30.478 91.9591C29.1476 89.9634 28.3305 88.2336 27.8755 86.7792C27.4386 85.3826 27.2804 84.0601 27.4947 82.9587C27.8304 81.2335 29.3093 80.4371 30.4604 80.3563L52.9512 78.7781L61.0151 72.7299V67.5298ZM66.8818 70.0964V74.0132C66.8818 75.0519 66.3928 76.0299 65.5618 76.6531L55.8658 83.9254C55.3577 84.3065 54.7504 84.5329 54.1168 84.5774L33.8432 86C34.1606 86.7253 34.6411 87.6275 35.3594 88.7049C36.3064 90.1254 37.7596 91.2074 39.3375 91.9789C40.8155 92.7016 42.2292 93.0662 43.0492 93.1909H91.5104L98.9203 78.371H88.9891C87.7856 78.371 86.6776 77.7159 86.0976 76.6614L82.4869 70.0964H66.8818ZM69.0548 74.1965C69.0548 72.5765 70.3681 71.2632 71.9881 71.2632H79.5863C81.2063 71.2632 82.5196 72.5765 82.5196 74.1965C82.5196 75.8165 81.2063 77.1298 79.5863 77.1298H71.9881C70.3681 77.1298 69.0548 75.8165 69.0548 74.1965Z" fill="#F6F4F2"/>
</svg>
