<svg width="133" height="133" viewBox="0 0 133 133" fill="none" xmlns="http://www.w3.org/2000/svg">
<path d="M0 66.5C0 29.7731 29.7731 0 66.5 0C103.227 0 133 29.7731 133 66.5C133 103.227 103.227 133 66.5 133C29.7731 133 0 103.227 0 66.5Z" fill="#183F92"/>
<path fill-rule="evenodd" clip-rule="evenodd" d="M35.9717 39.8209C36.4512 38.5263 37.6858 37.667 39.0663 37.667H44.4652C45.9546 37.667 47.2594 38.6647 47.6498 40.102L56.3141 72.0023H58.3673C60.1899 72.0023 61.6673 73.4797 61.6673 75.3023V82.5996H67.9522L70.6184 56.3179C70.7894 54.633 72.208 53.351 73.9016 53.351H85.1234C86.7569 53.351 88.1446 54.5461 88.3869 56.1615L90.5477 70.5669L103.501 71.9673C105.674 72.2021 107.022 74.4451 106.211 76.4738L98.0045 96.9891C97.5033 98.242 96.2898 99.0635 94.9405 99.0635H30.6999C28.8774 99.0635 27.3999 97.5861 27.3999 95.7635V74.9356C27.3999 73.3155 28.7132 72.0023 30.3332 72.0023C31.9533 72.0023 33.2666 73.3155 33.2666 74.9356V82.5996H40.9644V75.3023C40.9644 73.4797 42.4419 72.0023 44.2644 72.0023H50.2349L42.5027 43.5337H40.8527L37.3229 53.0642C36.7602 54.5834 35.0726 55.3588 33.5534 54.7961C32.0342 54.2335 31.2588 52.5458 31.8214 51.0266L35.9717 39.8209ZM46.8311 82.5996H55.8007V77.8689H46.8311V82.5996ZM33.2666 88.4662V93.1969H93.2028L99.507 77.4363L87.9485 76.1868C86.4572 76.0255 85.2622 74.8788 85.0397 73.3954L82.9131 59.2177H76.221L73.5548 85.4993C73.3839 87.1842 71.9652 88.4662 70.2716 88.4662H33.2666Z" fill="#F6F4F2"/>
</svg>
