<svg width="133" height="133" viewBox="0 0 133 133" fill="none" xmlns="http://www.w3.org/2000/svg">
<path d="M0 66.5C0 29.7731 29.7731 0 66.5 0C103.227 0 133 29.7731 133 66.5C133 103.227 103.227 133 66.5 133C29.7731 133 0 103.227 0 66.5Z" fill="#26A8CC"/>
<path fill-rule="evenodd" clip-rule="evenodd" d="M74.0857 40.2334C75.7058 40.2334 77.0191 41.5467 77.0191 43.1667V57.6101H83.3946C85.0147 57.6101 86.328 58.9234 86.328 60.5434C86.328 62.1634 85.0147 63.4767 83.3946 63.4767H64.7768C63.1567 63.4767 61.8434 62.1634 61.8434 60.5434C61.8434 58.9234 63.1567 57.6101 64.7768 57.6101H71.1524V43.1667C71.1524 41.5467 72.4657 40.2334 74.0857 40.2334ZM61.0156 67.5298C61.0156 65.7072 62.4931 64.2298 64.3156 64.2298H84.0049C85.2084 64.2298 86.3165 64.8849 86.8965 65.9394L90.5072 72.5044H103.074C105.527 72.5044 107.122 75.086 106.025 77.2802L96.0488 97.2333C95.4898 98.3513 94.3471 99.0575 93.0972 99.0575H42.6661L42.4849 99.0349C41.0641 98.8573 38.9309 98.3103 36.7609 97.2493C34.5876 96.1866 32.1794 94.5104 30.4785 91.9591C29.1481 89.9634 28.331 88.2336 27.876 86.7792C27.4391 85.3826 27.2809 84.0601 27.4952 82.9587C27.8309 81.2335 29.3097 80.4371 30.4608 80.3563L52.9517 78.7781L61.0156 72.7299V67.5298ZM66.8823 70.0964V74.0132C66.8823 75.0519 66.3933 76.0299 65.5623 76.6531L55.8663 83.9254C55.3582 84.3065 54.7509 84.5329 54.1173 84.5774L33.8436 86C34.161 86.7253 34.6416 87.6275 35.3599 88.7049C36.3069 90.1254 37.7601 91.2074 39.338 91.9789C40.816 92.7016 42.2297 93.0662 43.0497 93.1909H91.5109L98.9208 78.371H88.9896C87.7861 78.371 86.678 77.7159 86.0981 76.6614L82.4873 70.0964H66.8823ZM69.0553 74.1965C69.0553 72.5765 70.3686 71.2632 71.9886 71.2632H79.5868C81.2068 71.2632 82.5201 72.5765 82.5201 74.1965C82.5201 75.8165 81.2068 77.1298 79.5868 77.1298H71.9886C70.3686 77.1298 69.0553 75.8165 69.0553 74.1965Z" fill="#F6F4F2"/>
</svg>
