<svg width="133" height="133" viewBox="0 0 133 133" fill="none" xmlns="http://www.w3.org/2000/svg">
<path d="M0 66.5C0 29.7731 29.7731 0 66.5 0C103.227 0 133 29.7731 133 66.5C133 103.227 103.227 133 66.5 133C29.7731 133 0 103.227 0 66.5Z" fill="#183F92"/>
<path fill-rule="evenodd" clip-rule="evenodd" d="M74.0689 34.7334C75.6889 34.7334 77.0022 36.0467 77.0022 37.6667V64.5784H79.458V47.8993C79.458 46.2793 80.7713 44.966 82.3914 44.966C84.0114 44.966 85.3247 46.2793 85.3247 47.8993V64.5784H87.9511C89.7736 64.5784 91.2511 66.0558 91.2511 67.8784V73.2772L102.767 72.3176C105.344 72.1028 107.156 74.802 105.98 77.106L95.7226 97.2107C95.159 98.3154 94.0234 99.0109 92.7831 99.0109H30.6999C28.8774 99.0109 27.3999 97.5334 27.3999 95.7109V89.5954C27.3999 87.871 28.7275 86.4374 30.4468 86.3051L66.1984 83.555V79.659L42.2201 50.885V55.5907C45.6785 59.1003 48.2408 64.3253 48.807 68.9686C49.1178 71.5175 48.8773 74.3261 47.3599 76.5919C45.7301 79.0254 43.0285 80.2512 39.7131 80.2512C36.3563 80.2512 33.673 78.9659 32.0809 76.4831C30.616 74.1986 30.3933 71.3804 30.668 68.8476C31.1669 64.2467 33.474 59.0667 36.3534 55.7085V43.7958C36.3534 40.7093 40.2126 39.3121 42.1885 41.6832L66.1984 70.4949V67.8784C66.1984 66.0558 67.6758 64.5784 69.4984 64.5784H71.1356V37.6667C71.1356 36.0467 72.4489 34.7334 74.0689 34.7334ZM39.4617 61.3709C37.9815 63.7247 36.7936 66.7768 36.5004 69.48C36.2954 71.3706 36.5791 72.6296 37.0194 73.3162C37.3326 73.8046 37.9536 74.3846 39.7131 74.3846C41.514 74.3846 42.1699 73.7984 42.4854 73.3273C42.9132 72.6886 43.2056 71.5001 42.9835 69.6788C42.6537 66.9747 41.3008 63.836 39.4617 61.3709ZM72.065 70.445V85.9318C72.065 87.6563 70.7373 89.0898 69.0182 89.2221L33.2666 91.9722V93.1442H91.2112L98.6588 78.5469L88.9584 79.3553C87.0345 79.5156 85.3844 77.9973 85.3844 76.0667V70.445H72.065Z" fill="#F6F4F2"/>
</svg>
