<svg width="33" height="32" viewBox="0 0 33 32" fill="none" xmlns="http://www.w3.org/2000/svg">
<path d="M27.3699 4.8272C27.4475 5.11662 27.4868 5.41495 27.4868 5.71458L27.4865 9.14344L27.5858 9.14552C29.4198 9.21311 30.8859 10.7212 30.8859 12.5717V26.286C30.8859 28.1796 29.3509 29.7146 27.4573 29.7146H5.74302C3.84948 29.7146 2.31445 28.1796 2.31445 26.286V12.5717L2.31642 12.4544L2.3214 12.3517C2.22046 10.7556 3.25255 9.25697 4.8565 8.8272L23.1708 2.40283C24.9998 1.91275 26.8798 2.99817 27.3699 4.8272ZM27.4573 11.4289H5.74302C5.14053 11.4289 4.64693 11.8951 4.6033 12.4864L4.60017 12.5717V26.286C4.60017 26.8885 5.06638 27.3821 5.65773 27.4257L5.74302 27.4289H27.4573C28.0598 27.4289 28.5534 26.9627 28.597 26.3713L28.6002 26.286V12.5717C28.6002 11.9692 28.134 11.4756 27.5426 11.432L27.4573 11.4289ZM21.743 17.1432C23.0054 17.1432 24.0287 18.1665 24.0287 19.4289C24.0287 20.6912 23.0054 21.7146 21.743 21.7146C20.4807 21.7146 19.4573 20.6912 19.4573 19.4289C19.4573 18.1665 20.4807 17.1432 21.743 17.1432ZM23.8456 4.59162L23.8186 4.59773L10.8615 9.14287H25.2009L25.201 5.71458C25.201 5.64799 25.1952 5.5816 25.1837 5.51615L25.1621 5.41879C25.0062 4.83682 24.4281 4.48071 23.8456 4.59162Z" fill="black"/>
</svg>
