<svg width="126" height="163" viewBox="0 0 126 163" fill="none" xmlns="http://www.w3.org/2000/svg">
<g filter="url(#filter0_f_4603_190355)">
<path d="M114 132C109.001 134.802 74.6878 151.162 62 156C49.5008 143.99 60.3217 115.782 64.5 107.5C66.7722 102.996 92.6319 74.7521 109 81C126.044 87.5056 120.249 128.497 114 132Z" fill="url(#paint0_linear_4603_190355)"/>
</g>
<g filter="url(#filter1_d_4603_190355)">
<path d="M59 6C29.1457 6 5 29.6315 5 58.85C5 98.4875 59 157 59 157C59 157 113 98.4875 113 58.85C113 29.6315 88.8543 6 59 6Z" fill="#2BA451"/>
</g>
<path fill-rule="evenodd" clip-rule="evenodd" d="M61.564 39.086C60.8685 37.8497 59.0862 37.8459 58.3854 39.0791L53.0849 48.4066C52.0909 50.1559 49.8637 50.77 48.1103 49.7782C46.357 48.7865 45.7415 46.5644 46.7355 44.8152L52.036 35.4877C55.54 29.3215 64.4516 29.3407 67.9289 35.5219L74.895 47.905L77.0319 42.0476C77.7213 40.158 79.8154 39.1837 81.7094 39.8714C83.6034 40.5592 84.5799 42.6485 83.8906 44.5381L79.1059 57.6536C78.9386 58.1121 78.6886 58.5168 78.3787 58.8569C77.4119 59.9182 75.8627 60.3506 74.4283 59.8297L61.2825 55.0561C59.3885 54.3684 58.412 52.279 59.1014 50.3894C59.7907 48.4998 61.8849 47.5255 63.7789 48.2133L67.4481 49.5457L61.564 39.086ZM52.8853 67.3956C53.5747 69.2852 52.5981 71.3745 50.7042 72.0623C48.8102 72.75 46.716 71.7757 46.0267 69.8861L44.014 64.3693L37.546 75.7513C36.8564 76.9649 37.735 78.4697 39.1334 78.4697H46.6157C48.6312 78.4697 50.2651 80.0998 50.2651 82.1106C50.2651 84.1215 48.6312 85.7516 46.6157 85.7516H39.1334C32.1418 85.7516 27.7484 78.2279 31.1966 72.1598L36.8293 62.2477L32.7736 63.7205C30.8796 64.4082 28.7854 63.4339 28.0961 61.5444C27.4067 59.6548 28.3833 57.5654 30.2772 56.8776L43.423 52.104C43.5006 52.0759 43.5785 52.0505 43.6566 52.0279C44.0554 51.9123 44.4601 51.868 44.8561 51.8882C46.2764 51.9606 47.5836 52.8629 48.1007 54.2801L52.8853 67.3956ZM83.4912 63.1855C82.5047 61.4319 80.2802 60.8083 78.5226 61.7924C76.765 62.7766 76.1398 64.996 77.1263 66.7496L82.1941 75.758C82.8767 76.9716 81.9977 78.4696 80.6028 78.4696H67.4292L70.94 74.9669C72.3652 73.545 72.3652 71.2397 70.94 69.8178C69.5148 68.3959 67.2041 68.3959 65.7789 69.8178L55.8869 79.687C54.6398 80.9311 54.4839 82.8517 55.4192 84.2649C55.5528 84.4668 55.7087 84.6584 55.8869 84.8361L65.779 94.7053C67.2041 96.1272 69.5148 96.1272 70.94 94.7053C72.3652 93.2834 72.3652 90.9781 70.94 89.5562L67.1266 85.7515H80.6028C87.577 85.7515 91.9723 78.2616 88.559 72.194L83.4912 63.1855Z" fill="#F6F4F2"/>
<defs>
<filter id="filter0_f_4603_190355" x="51.1602" y="75.1021" width="74.0781" height="85.8979" filterUnits="userSpaceOnUse" color-interpolation-filters="sRGB">
<feFlood flood-opacity="0" result="BackgroundImageFix"/>
<feBlend mode="normal" in="SourceGraphic" in2="BackgroundImageFix" result="shape"/>
<feGaussianBlur stdDeviation="2.5" result="effect1_foregroundBlur_4603_190355"/>
</filter>
<filter id="filter1_d_4603_190355" x="0" y="0" width="120" height="163" filterUnits="userSpaceOnUse" color-interpolation-filters="sRGB">
<feFlood flood-opacity="0" result="BackgroundImageFix"/>
<feColorMatrix in="SourceAlpha" type="matrix" values="0 0 0 0 0 0 0 0 0 0 0 0 0 0 0 0 0 0 127 0" result="hardAlpha"/>
<feOffset dx="1"/>
<feGaussianBlur stdDeviation="3"/>
<feComposite in2="hardAlpha" operator="out"/>
<feColorMatrix type="matrix" values="0 0 0 0 0 0 0 0 0 0 0 0 0 0 0 0 0 0 0.2 0"/>
<feBlend mode="normal" in2="BackgroundImageFix" result="effect1_dropShadow_4603_190355"/>
<feBlend mode="normal" in="SourceGraphic" in2="effect1_dropShadow_4603_190355" result="shape"/>
</filter>
<linearGradient id="paint0_linear_4603_190355" x1="61" y1="156" x2="99.0173" y2="98.3919" gradientUnits="userSpaceOnUse">
<stop/>
<stop offset="0.899915" stop-color="white" stop-opacity="0"/>
</linearGradient>
</defs>
</svg>
