<svg width="133" height="133" viewBox="0 0 133 133" fill="none" xmlns="http://www.w3.org/2000/svg">
<path d="M0 66.5C0 29.7731 29.7731 0 66.5 0C103.227 0 133 29.7731 133 66.5C133 103.227 103.227 133 66.5 133C29.7731 133 0 103.227 0 66.5Z" fill="#389FE9"/>
<path fill-rule="evenodd" clip-rule="evenodd" d="M35.9722 39.8206C36.4517 38.5261 37.6863 37.6667 39.0668 37.6667H44.4657C45.9551 37.6667 47.2599 38.6645 47.6503 40.1018L56.3146 72.002H58.3678C60.1904 72.002 61.6678 73.4795 61.6678 75.302V82.5993H67.9527L70.6189 56.3177C70.7899 54.6328 72.2085 53.3508 73.9021 53.3508H85.1239C86.7574 53.3508 88.1451 54.5458 88.3874 56.1612L90.5482 70.5667L103.502 71.967C105.674 72.2019 107.023 74.4449 106.211 76.4735L98.0049 96.9889C97.5038 98.2417 96.2903 99.0633 94.941 99.0633H30.7004C28.8778 99.0633 27.4004 97.5858 27.4004 95.7633V74.9353C27.4004 73.3153 28.7137 72.002 30.3337 72.002C31.9538 72.002 33.2671 73.3153 33.2671 74.9353V82.5993H40.9649V75.302C40.9649 73.4795 42.4424 72.002 44.2649 72.002H50.2354L42.5032 43.5334H40.8532L37.3234 53.064C36.7607 54.5831 35.073 55.3586 33.5539 54.7959C32.0347 54.2332 31.2593 52.5456 31.8219 51.0264L35.9722 39.8206ZM46.8316 82.5993H55.8012V77.8687H46.8316V82.5993ZM33.2671 88.466V93.1966H93.2032L99.5075 77.4361L87.949 76.1865C86.4577 76.0253 85.2627 74.8786 85.0402 73.3952L82.9135 59.2174H76.2215L73.5553 85.499C73.3843 87.1839 71.9657 88.466 70.2721 88.466H33.2671Z" fill="#F6F4F2"/>
</svg>
