<svg width="47" height="48" viewBox="0 0 47 48" fill="none" xmlns="http://www.w3.org/2000/svg">
<path d="M24.123 3.17881C33.1332 3.17881 41.121 8.90066 43.9646 17.3881L47 16.3709C43.709 6.61192 34.5071 0 24.123 0C10.8314 0 0 10.7762 0 24C0 37.2238 10.8314 48 24.123 48C24.6343 48 25.3372 48 26.0401 47.9682V44.7894V38.0503C28.1808 37.5099 30.673 36.5245 33.2291 34.7126C38.533 30.898 41.9837 27.147 41.9837 25.2079C41.9837 23.8411 37.8939 13.0331 28.692 10.9033C20.257 8.96424 14.4099 12.4927 11.9816 16.1166C9.29776 20.1536 9.87287 23.9682 10.2563 25.4305L13.3555 24.6358C13.1319 23.8093 12.6207 20.9166 14.6655 17.8649C17.8606 13.0967 24.5384 13.1921 27.9891 13.9868C34.7627 15.5444 38.2454 23.396 38.7566 25.1444C38.3413 26.0027 36.4242 28.4821 31.3759 32.1378C29.5867 33.4411 27.7655 34.2676 26.0401 34.7762C25.8164 31.0887 23.9633 27.1152 19.1067 27.1152C16.327 27.1152 14.1224 28.5457 13.3236 30.8344C12.5887 33.0278 13.3555 35.4755 15.2407 36.906C16.8382 38.1457 19.6818 38.7179 22.8131 38.4954V44.7576C11.8858 44.0901 3.16315 35.0305 3.16315 24C3.19511 12.5245 12.5887 3.17881 24.123 3.17881ZM17.1897 34.3947C16.3589 33.7589 16.0394 32.7735 16.3589 31.8517C16.7104 30.8662 17.7009 30.294 19.1067 30.294C22.4616 30.294 22.845 33.8225 22.845 35.3166C20.0972 35.5709 17.9884 34.9987 17.1897 34.3947ZM29.6506 23.8729C28.2128 23.8729 27.0306 22.6967 27.0306 21.2662C27.0306 19.8358 28.2128 18.6596 29.6506 18.6596C31.0884 18.6596 32.2706 19.8358 32.2706 21.2662C32.2706 22.6967 31.0884 23.8729 29.6506 23.8729Z" fill="#0D0D0D"/>
</svg>
