<svg width="133" height="133" viewBox="0 0 133 133" fill="none" xmlns="http://www.w3.org/2000/svg">
<path d="M0 66.5C0 29.7731 29.7731 0 66.5 0C103.227 0 133 29.7731 133 66.5C133 103.227 103.227 133 66.5 133C29.7731 133 0 103.227 0 66.5Z" fill="#3C94B9"/>
<path fill-rule="evenodd" clip-rule="evenodd" d="M64.4271 40.2334V55.9587C64.4271 58.4925 61.6899 60.081 59.4899 58.8239L46.0595 51.1493L42.7252 56.3682L55.8208 64.1348C58.0221 65.4403 57.9639 68.6461 55.7167 69.8708L42.8095 76.9049L46.0482 81.8335L59.5245 74.3467C61.7241 73.1247 64.4271 74.7152 64.4271 77.2314V93.7668H69.8644V77.2128C69.8644 74.7158 72.5303 73.1234 74.7289 74.3073L88.5729 81.7617L91.13 77.0513L77.4527 69.897C75.1392 68.6869 75.0807 65.3966 77.3497 64.105L91.1989 56.2216L88.5607 51.223L74.7632 58.8647C72.5638 60.0829 69.8644 58.4922 69.8644 55.9779V40.2334H64.4271ZM59.2938 38.4001C59.2938 36.5776 60.7713 35.1001 62.5938 35.1001H71.6977C73.5203 35.1001 74.9977 36.5776 74.9977 38.4001V52.8667L87.7101 45.826C89.3272 44.9304 91.3646 45.5377 92.2274 47.1726L96.5676 55.3961C97.3992 56.9717 96.83 58.923 95.2816 59.8043L82.8077 66.9049L95.159 73.3656C96.7916 74.2195 97.4087 76.2449 96.5297 77.8641L92.2126 85.8166C91.3452 87.4145 89.3487 88.0097 87.7479 87.1477L74.9977 80.2822V95.6001C74.9977 97.4226 73.5203 98.9001 71.6977 98.9001H62.5938C60.7713 98.9001 59.2938 97.4226 59.2938 95.6001V80.3472L47.0534 87.1474C45.5433 87.9863 43.6417 87.5187 42.693 86.075L37.4261 78.0602C36.3664 76.4476 36.9104 74.2737 38.6048 73.3503L50.4299 66.9058L38.4765 59.8167C36.872 58.8651 36.3746 56.7736 37.379 55.2016L42.6731 46.9151C43.6203 45.4326 45.5638 44.9538 47.0913 45.8266L59.2938 52.7995V38.4001Z" fill="#F6F4F2"/>
</svg>
