<svg width="22" height="22" viewBox="0 0 22 22" fill="none" xmlns="http://www.w3.org/2000/svg">
<path d="M0 11C0 4.92487 4.92487 0 11 0C17.0751 0 22 4.92487 22 11C22 17.0751 17.0751 22 11 22C4.92487 22 0 17.0751 0 11Z" fill="#183F92"/>
<path fill-rule="evenodd" clip-rule="evenodd" d="M12.6595 6.35188C12.6595 6.9611 12.314 7.48963 11.8083 7.75225C11.8097 7.77049 11.8104 7.78892 11.8104 7.80751V9.14185H14.6004C15.0023 9.14185 15.3282 9.46771 15.3282 9.86967C15.3282 10.2716 15.0023 10.5975 14.6004 10.5975H11.8104V15.0392C13.6949 14.7965 15.2889 13.6238 16.116 11.9938C16.2828 11.6652 16.6843 11.534 17.0129 11.7008C17.3415 11.8675 17.4727 12.2691 17.3059 12.5977C16.2596 14.6594 14.2172 16.133 11.8104 16.3825V17.0266C11.8104 17.4285 11.4845 17.7544 11.0826 17.7544C10.6806 17.7544 10.3548 17.4285 10.3548 17.0266V16.3825C7.94796 16.1329 5.90553 14.6594 4.85923 12.5977C4.69249 12.2691 4.82368 11.8675 5.15226 11.7008C5.48083 11.534 5.88237 11.6652 6.04912 11.9938C6.87628 13.6238 8.47028 14.7965 10.3548 15.0392V10.5975H7.56478C7.16282 10.5975 6.83696 10.2716 6.83696 9.86967C6.83696 9.46771 7.16282 9.14185 7.56478 9.14185H10.3548V7.80751C10.3548 7.78892 10.3555 7.77049 10.3568 7.75225C9.8511 7.48963 9.50563 6.9611 9.50563 6.35188C9.50563 5.48095 10.2117 4.77493 11.0826 4.77493C11.9535 4.77493 12.6595 5.48095 12.6595 6.35188ZM11.6891 6.35188C11.6891 6.68685 11.4175 6.95839 11.0826 6.95839C10.7476 6.95839 10.4761 6.68685 10.4761 6.35188C10.4761 6.01691 10.7476 5.74536 11.0826 5.74536C11.4175 5.74536 11.6891 6.01691 11.6891 6.35188Z" fill="#F6F4F2"/>
</svg>
