<svg width="22" height="22" viewBox="0 0 22 22" fill="none" xmlns="http://www.w3.org/2000/svg">
<path d="M0 11C0 4.92487 4.92487 0 11 0C17.0751 0 22 4.92487 22 11C22 17.0751 17.0751 22 11 22C4.92487 22 0 17.0751 0 11Z" fill="#2BA451"/>
<path fill-rule="evenodd" clip-rule="evenodd" d="M11.5127 6.41722C11.3736 6.16998 11.0171 6.16921 10.877 6.41586L9.81689 8.28136C9.61808 8.63121 9.17263 8.75403 8.82197 8.55568C8.4713 8.35733 8.3482 7.91292 8.54701 7.56306L9.60711 5.69756C10.3079 4.46433 12.0902 4.46817 12.7857 5.70441L14.1789 8.18103L14.6063 7.00954C14.7442 6.63162 15.163 6.43676 15.5418 6.57431C15.9206 6.71187 16.1159 7.12974 15.978 7.50766L15.0211 10.1307C14.9876 10.2225 14.9376 10.3034 14.8757 10.3714C14.6823 10.5837 14.3724 10.6702 14.0856 10.566L11.4564 9.61126C11.0776 9.47371 10.8823 9.05583 11.0202 8.67791C11.158 8.3 11.5769 8.10514 11.9557 8.24269L12.6895 8.50917L11.5127 6.41722ZM9.77697 12.0791C9.91484 12.4571 9.71953 12.8749 9.34074 13.0125C8.96195 13.15 8.5431 12.9552 8.40524 12.5773L8.00271 11.4739L6.7091 13.7503C6.57117 13.993 6.74691 14.294 7.02657 14.294H8.52304C8.92614 14.294 9.25292 14.62 9.25292 15.0222C9.25292 15.4243 8.92614 15.7504 8.52304 15.7504H7.02657C5.62825 15.7504 4.74958 14.2456 5.43923 13.032L6.56577 11.0496L5.75462 11.3441C5.37583 11.4817 4.95699 11.2868 4.81912 10.9089C4.68125 10.531 4.87656 10.1131 5.25535 9.97556L7.88451 9.02083C7.90002 9.0152 7.9156 9.01013 7.93122 9.0056C8.01099 8.98248 8.09193 8.97362 8.17112 8.97766C8.45519 8.99215 8.71663 9.17262 8.82003 9.45605L9.77697 12.0791ZM15.8981 11.2371C15.7008 10.8864 15.2559 10.7617 14.9044 10.9585C14.5529 11.1554 14.4279 11.5992 14.6252 11.9499L15.6387 13.7516C15.7752 13.9943 15.5994 14.2939 15.3205 14.2939H12.6857L13.3879 13.5934C13.6729 13.309 13.6729 12.848 13.3879 12.5636C13.1029 12.2792 12.6407 12.2792 12.3557 12.5636L10.3773 14.5374C10.1279 14.7863 10.0967 15.1704 10.2837 15.453C10.3105 15.4934 10.3416 15.5317 10.3773 15.5672L12.3557 17.5411C12.6407 17.8255 13.1029 17.8255 13.3879 17.5411C13.6729 17.2567 13.6729 16.7956 13.3879 16.5113L12.6252 15.7503H15.3205C16.7153 15.7503 17.5944 14.2524 16.9117 13.0388L15.8981 11.2371Z" fill="#F6F4F2"/>
</svg>
