<svg width="133" height="133" viewBox="0 0 133 133" fill="none" xmlns="http://www.w3.org/2000/svg">
<path d="M0 66.5C0 29.7731 29.7731 0 66.5 0C103.227 0 133 29.7731 133 66.5C133 103.227 103.227 133 66.5 133C29.7731 133 0 103.227 0 66.5Z" fill="#4868F5"/>
<path fill-rule="evenodd" clip-rule="evenodd" d="M74.0694 34.7334C75.6894 34.7334 77.0027 36.0467 77.0027 37.6667V64.5784H79.4585V47.8993C79.4585 46.2793 80.7718 44.966 82.3919 44.966C84.0119 44.966 85.3252 46.2793 85.3252 47.8993V64.5784H87.9516C89.7741 64.5784 91.2516 66.0558 91.2516 67.8784V73.2772L102.767 72.3176C105.345 72.1028 107.156 74.802 105.981 77.106L95.7231 97.2107C95.1594 98.3154 94.0239 99.0109 92.7836 99.0109H30.7004C28.8778 99.0109 27.4004 97.5334 27.4004 95.7109V89.5954C27.4004 87.871 28.728 86.4374 30.4472 86.3051L66.1988 83.555V79.659L42.2205 50.885V55.5907C45.679 59.1003 48.2412 64.3253 48.8075 68.9686C49.1183 71.5175 48.8778 74.3261 47.3603 76.5919C45.7306 79.0254 43.029 80.2512 39.7136 80.2512C36.3568 80.2512 33.6735 78.9659 32.0814 76.4831C30.6165 74.1986 30.3938 71.3804 30.6685 68.8476C31.1673 64.2467 33.4745 59.0667 36.3539 55.7085V43.7958C36.3539 40.7093 40.2131 39.3121 42.189 41.6832L66.1988 70.4949V67.8784C66.1988 66.0558 67.6763 64.5784 69.4988 64.5784H71.1361V37.6667C71.1361 36.0467 72.4493 34.7334 74.0694 34.7334ZM39.4621 61.3709C37.982 63.7247 36.7941 66.7768 36.5009 69.48C36.2959 71.3706 36.5796 72.6296 37.0199 73.3162C37.3331 73.8046 37.954 74.3846 39.7136 74.3846C41.5145 74.3846 42.1704 73.7984 42.4859 73.3273C42.9137 72.6886 43.2061 71.5001 42.984 69.6788C42.6542 66.9747 41.3013 63.836 39.4621 61.3709ZM72.0655 70.445V85.9318C72.0655 87.6563 70.7378 89.0898 69.0186 89.2221L33.2671 91.9722V93.1442H91.2117L98.6593 78.5469L88.9589 79.3553C87.035 79.5156 85.3849 77.9973 85.3849 76.0667V70.445H72.0655Z" fill="#F6F4F2"/>
</svg>
